# xmcd
#
# Track frame offsets:
#   150
#   13815
#   26892
#   40788
#   53931
#   70221
#   81228
#   96204
#   109644
#   121227
#   136074
#   151656
#   165129
#   182781
#
# Disc length: 2656 seconds
#
# Revision: 0
# Processed by: cddbd v1.5.1PL2 Copyright (c) Steve Scherf et al.
# Submitted via: uFREEDB ActiveX Control 1.5
#
DISCID=aa0a5e0e
DTITLE=Tião Carreiro e Pardinha - Os Gigantes
DYEAR=2002
DGENRE=Country
TTITLE0=Amargurado
TTITLE1=Pagode Em Brasília
TTITLE2=Oi Paixão
TTITLE3=Rei Do Gado
TTITLE4=Rio De Lágrimas
TTITLE5=Empreitada Perigosa
TTITLE6=Estrela De Ouro
TTITLE7=O Mineiro E O Italiano
TTITLE8=Nossos Desvaneios
TTITLE9=A Vaca Já Foi Pro Brejo
TTITLE10=Cabelo Loiro
TTITLE11=Borboleta De Asfalto
TTITLE12=Menino Da Porteira
TTITLE13=A Mão Do Tempo
EXTD=
EXTT0=
EXTT1=
EXTT2=
EXTT3=
EXTT4=
EXTT5=
EXTT6=
EXTT7=
EXTT8=
EXTT9=
EXTT10=
EXTT11=
EXTT12=
EXTT13=
PLAYORDER=
